<svg height='300px' width='300px'  fill="#000000" xmlns="http://www.w3.org/2000/svg" xmlns:xlink="http://www.w3.org/1999/xlink" xmlns:sketch="http://www.bohemiancoding.com/sketch/ns" viewBox="0 0 100 100" version="1.1" x="0px" y="0px"><title>Path 1 Copy 8</title><desc>Created with Sketch.</desc><g stroke="none" stroke-width="1" fill="none" fill-rule="evenodd" sketch:type="MSPage"><path d="M60.9132648,10.5648612 C62.9842278,10.8737188 67.1196605,12.7523805 67.5813573,17.0644859 C68.3966583,24.6791463 67.8883833,32.129593 67.8883833,32.129593 C67.8883833,32.129593 69.6688882,31.8893349 70.2753298,33.5603995 C70.8817714,35.2314642 69.5608305,44.1579188 68.1014142,45.2676367 C66.6419979,46.3773547 66.0355563,46.3899047 66.0355563,46.3899047 C66.0355563,46.3899047 65.2121007,53.4087604 63.3261386,55.4381368 C62.5359139,56.2884526 61.2905921,64.2154804 65.3355215,68.582881 C69.3804508,72.9502816 80.1351642,77.1483635 86.5531074,79.7885435 C92.9710507,82.4287236 95.0998713,91.6399994 95.0998713,91.6399994 L5.09787671,91.6399994 C5.09787671,91.6399994 7.22669734,82.4287236 13.6446406,79.7885435 C20.0625838,77.1483635 30.8172972,72.9502816 34.8622265,68.582881 C38.9071559,64.2154804 37.6618341,56.2884526 36.8716094,55.4381368 C34.9856474,53.4087604 34.1621917,46.3899047 34.1621917,46.3899047 C34.1621917,46.3899047 33.5557501,46.3773547 32.0963338,45.2676367 C30.6369175,44.1579188 29.3159766,35.2314642 29.9224182,33.5603995 C30.5288598,31.8893349 32.3093648,32.129593 32.3093648,32.129593 C32.3093648,32.129593 32.6131173,23.2350445 32.6131173,21.9836604 C32.6131173,20.9481789 30.7913624,21.1423443 30.9072979,20.4857441 C32.6272863,10.7446029 42.2373969,8.00716715 50.3213547,8.00018824 C53.8274486,7.99716142 59.5689257,8.00018824 60.9132648,10.5648612 Z" fill="#000000" sketch:type="MSShapeGroup"></path></g></svg>